<svg xmlns="http://www.w3.org/2000/svg" fill="none" viewBox="0 0 156 30" height="30" width="156">
<g clip-path="url(#clip0_668_7623)">
<path fill="#2F3032" d="M0.317023 13.0986C0.317023 10.9902 0.289456 9.12011 0.238916 7.47914C0.183781 5.84284 0.110269 4.1972 0.00459453 2.54688C0.450264 2.5983 0.937285 2.64038 1.46106 2.67778C1.98484 2.71518 2.57753 2.73856 3.22996 2.73856C4.35562 2.73856 5.53641 2.70583 6.76775 2.64505C7.99908 2.5796 9.17988 2.55155 10.3055 2.55155C11.4312 2.55155 12.5615 2.66843 13.5309 2.89751C14.5003 3.12659 15.3365 3.47255 16.0487 3.94474C16.7563 4.41693 17.2984 5.02469 17.6798 5.77271C18.0565 6.52074 18.2495 7.41836 18.2495 8.46092C18.2495 9.50347 18.0244 10.3964 17.5833 11.1444C17.1376 11.8971 16.5955 12.5189 15.9522 13.0145C15.309 13.5101 14.6152 13.8981 13.8709 14.1739C13.122 14.4544 12.4466 14.6414 11.8447 14.7443V14.8191C12.4466 14.8471 13.1541 14.978 13.9674 15.2212C14.7806 15.4643 15.5525 15.8383 16.2876 16.3479C17.0227 16.8574 17.643 17.5073 18.1576 18.3114C18.6676 19.1109 18.9249 20.0833 18.9249 21.224C18.9249 22.5938 18.6676 23.7626 18.1576 24.7304C17.6476 25.6934 16.9676 26.4835 16.113 27.0913C15.263 27.6991 14.2844 28.1245 13.1817 28.3676C12.079 28.6061 10.9442 28.7276 9.76338 28.7276C8.71583 28.7276 7.73719 28.7136 6.83666 28.6902C5.93154 28.6622 4.98047 28.6528 3.98805 28.6528H1.79187C1.04296 28.6528 0.44567 28.6762 0 28.7276C0.105674 27.1521 0.183781 25.5485 0.234321 23.9075C0.289456 22.2666 0.312428 20.3965 0.312428 18.288V13.108L0.317023 13.0986ZM12.4236 9.17153C12.4236 8.56377 12.3501 7.98405 12.2077 7.44174C12.0652 6.89475 11.8217 6.42723 11.4817 6.02985C11.1417 5.63246 10.7099 5.31923 10.1815 5.07612C9.65771 4.83301 9.00528 4.71146 8.21502 4.71146C7.63611 4.71146 7.23639 4.72081 7.01585 4.73016C6.79531 4.74419 6.5518 4.77224 6.28991 4.82366C6.23478 5.76336 6.19802 6.71242 6.17046 7.68017C6.14289 8.64792 6.1337 9.45672 6.1337 10.1206C6.1337 10.7845 6.1383 11.4623 6.15208 12.0841C6.16586 12.7059 6.17046 13.3511 6.17046 14.0103H7.93935C8.4907 14.0103 9.03285 13.9074 9.57041 13.7064C10.108 13.5007 10.5858 13.2015 11.0085 12.8088C11.4266 12.4161 11.7666 11.9112 12.0285 11.3034C12.2904 10.6956 12.4236 9.98501 12.4236 9.17153ZM12.6993 21.4812C12.6993 19.7046 12.2858 18.3769 11.4634 17.5026C10.6363 16.6237 9.43717 16.1889 7.86584 16.1889C7.49828 16.1889 7.18585 16.1983 6.92396 16.2076C6.66207 16.2216 6.41397 16.2263 6.17965 16.2263C6.17965 16.7639 6.17046 17.3156 6.16127 17.886C6.14748 18.4563 6.14289 19.1389 6.14289 19.9243C6.14289 20.5368 6.14748 21.1586 6.16127 21.7897C6.17505 22.4255 6.17965 23.0473 6.17965 23.6598C6.17965 24.2722 6.18424 24.8285 6.19802 25.3335C6.21181 25.843 6.2164 26.2638 6.2164 26.5911C6.58397 26.6191 6.92396 26.6331 7.24098 26.6518C7.55341 26.6659 7.93476 26.6705 8.38043 26.6705C8.95934 26.6705 9.50609 26.5583 10.0299 26.3293C10.5536 26.1002 11.0131 25.7636 11.4036 25.3194C11.7988 24.8753 12.1112 24.333 12.3455 23.6972C12.5798 23.0613 12.6993 22.3274 12.6993 21.4858V21.4812Z"></path>
<path fill="#2F3032" d="M24.6589 6.11397L24.76 6.17474C24.7692 6.17942 24.7783 6.18409 24.7875 6.18877L27.9348 8.00272C27.5534 6.77783 28.2794 5.87086 28.4448 5.68853C29.0467 5.10414 29.4234 4.28599 29.4234 3.37434C29.4234 1.60714 28.0175 0.171875 26.2762 0.171875C24.5348 0.171875 23.1289 1.60246 23.1289 3.37434C23.1289 4.53845 23.7446 5.55762 24.6589 6.11864V6.11397Z"></path>
<path fill="#2F3032" d="M28.9969 14.5017C29.0336 13.1412 29.1209 11.7761 29.2542 10.4062C28.519 10.5325 27.5404 10.5933 26.3045 10.5933C25.7026 10.5933 25.1512 10.5746 24.655 10.5372C24.1588 10.4998 23.7223 10.4577 23.3594 10.4062C23.488 11.7761 23.5753 13.1412 23.6121 14.5017C23.6534 15.8575 23.6718 17.3114 23.6718 18.8636V20.3877C23.6718 21.9351 23.6534 23.3984 23.6121 24.7729C23.5753 26.1427 23.488 27.4658 23.3594 28.7328C23.7223 28.6813 24.1588 28.658 24.655 28.658H27.9769C28.4869 28.658 28.9142 28.6813 29.2542 28.7328C29.1255 27.4611 29.0382 26.1427 28.9969 24.7729C28.9601 23.3984 28.9371 21.9398 28.9371 20.3877V18.8636C28.9371 17.3161 28.9555 15.8621 28.9969 14.5017Z"></path>
<path fill="#2F3032" d="M33.0632 20.0747C33.0632 18.3776 33.3297 16.8909 33.8672 15.6193C34.4048 14.3476 35.1215 13.291 36.0083 12.4402C36.8996 11.5893 37.9288 10.9535 39.0958 10.5327C40.2628 10.112 41.462 9.90625 42.6933 9.90625C45.7579 9.90625 48.1287 10.7431 49.8057 12.4215C51.4827 14.0998 52.3189 16.372 52.3189 19.2425C52.3189 20.79 52.0846 22.1878 51.6113 23.4361C51.1427 24.6797 50.4765 25.7409 49.6265 26.6152C48.7765 27.4941 47.7565 28.1439 46.5803 28.5787C45.3995 29.0088 44.1039 29.2286 42.6887 29.2286C41.5079 29.2286 40.3455 29.0743 39.2107 28.7704C38.0712 28.4618 37.0421 27.9523 36.1232 27.2276C35.2042 26.503 34.4645 25.5586 33.904 24.3898C33.3389 23.221 33.0586 21.7858 33.0586 20.084L33.0632 20.0747ZM46.5068 18.6674C46.5068 16.4327 46.2173 14.6983 45.6384 13.4687C45.0595 12.2345 44.1039 11.6173 42.7668 11.6173C41.5585 11.6173 40.612 12.3046 39.9182 13.6744C39.2245 15.0489 38.8753 17.1948 38.8753 20.1121C38.8753 21.178 38.9396 22.1691 39.0728 23.0854C39.2015 23.9971 39.422 24.7965 39.7207 25.4698C40.0193 26.143 40.4144 26.6666 40.8969 27.05C41.3839 27.4333 41.9904 27.6203 42.7255 27.6203C45.2387 27.6203 46.5022 24.6376 46.5022 18.6674H46.5068Z"></path>
<path fill="#2F3032" d="M73.0802 15.6523C73.0802 18.1395 73.1077 20.4256 73.1583 22.5108C73.2088 24.5959 73.2869 26.6623 73.3926 28.7193C73.048 28.6679 72.6161 28.6445 72.0923 28.6445H68.9267C68.4397 28.6445 68.0675 28.6679 67.8056 28.7193C67.8286 28.6679 67.8562 28.5043 67.8837 28.2238C67.9113 27.9479 67.9435 27.6253 67.9848 27.27C68.0216 26.9147 68.0583 26.5828 68.0859 26.2789C68.1089 25.975 68.1227 25.7833 68.1227 25.7085L68.0446 25.6337C67.5483 26.7791 66.8683 27.6581 66 28.2845C65.1362 28.9063 63.9416 29.2196 62.4254 29.2196C61.0884 29.2196 59.949 28.9718 59.0071 28.4762C58.0652 27.9807 57.2887 27.2887 56.6869 26.4005C56.085 25.5122 55.6393 24.4696 55.3499 23.2775C55.0604 22.0853 54.918 20.7997 54.918 19.4298C54.918 18.06 55.1155 16.7931 55.5061 15.6383C55.9012 14.4836 56.4342 13.4784 57.1188 12.6275C57.7987 11.7767 58.6074 11.1128 59.5355 10.6266C60.4636 10.145 61.456 9.90193 62.5035 9.90193C63.6843 9.90193 64.7365 10.1684 65.6692 10.7014C66.5973 11.2343 67.2865 11.9076 67.7321 12.721H67.8102C67.8102 10.4349 67.7827 8.28433 67.7321 6.26467C67.677 4.24502 67.5989 2.15523 67.4978 0C67.8378 0.0514264 68.2697 0.0935026 68.7981 0.130904C69.3218 0.168305 69.8732 0.187005 70.4475 0.187005C71.0218 0.187005 71.5732 0.168305 72.0969 0.130904C72.6207 0.0935026 73.0526 0.0467513 73.3972 0C73.2915 2.13186 73.2134 4.24034 73.1629 6.32545C73.1123 8.41056 73.0848 10.692 73.0848 13.1839V15.6617L73.0802 15.6523ZM60.7346 19.9955C60.7346 21.2905 60.8265 22.3845 61.0103 23.2728C61.1941 24.1611 61.4468 24.881 61.7592 25.4234C62.0717 25.9703 62.4346 26.3631 62.8389 26.6062C63.2433 26.8446 63.6706 26.9661 64.1162 26.9661C65.1913 26.9661 66.0781 26.3771 66.7719 25.1943C67.4656 24.0115 67.8148 22.0526 67.8148 19.3083C67.8148 16.9473 67.4886 15.2269 66.8316 14.1469C66.1792 13.067 65.3384 12.5293 64.3184 12.5293C63.9003 12.5293 63.4776 12.6416 63.0595 12.8706C62.6414 13.0997 62.26 13.4971 61.92 14.0721C61.58 14.6472 61.2952 15.4139 61.0746 16.377C60.8495 17.3401 60.7392 18.5462 60.7392 19.9955H60.7346Z"></path>
<path fill="#2F3032" d="M77.7615 12.5757C78.8642 11.7155 80.045 11.0517 81.3177 10.5935C82.5904 10.1353 83.8539 9.90625 85.1128 9.90625C86.1603 9.90625 87.1252 10.0231 88.0027 10.2522C88.8803 10.4813 89.643 10.8413 90.2816 11.3368C90.9249 11.8324 91.4211 12.4729 91.7749 13.2583C92.1286 14.0484 92.3078 14.9975 92.3078 16.1148C92.3078 17.7418 92.2894 19.2472 92.2481 20.6263C92.2067 22.0102 92.1884 23.3893 92.1884 24.7638C92.1884 25.3716 92.2343 25.8484 92.3262 26.1897C92.4181 26.5357 92.5559 26.7928 92.7397 26.9705C92.9235 27.1481 93.167 27.265 93.4656 27.3164C93.7689 27.3679 94.1135 27.3912 94.5086 27.3912V28.3029C93.7505 28.6068 93.1073 28.8405 92.5835 28.9901C92.0597 29.1397 91.4946 29.2192 90.8927 29.2192C89.9233 29.2192 89.1376 28.9901 88.5311 28.532C87.9292 28.0738 87.4698 27.4146 87.1573 26.5544C86.5555 27.3679 85.8525 28.0177 85.053 28.4946C84.2536 28.9761 83.252 29.2192 82.0436 29.2192C81.0512 29.2192 80.1966 29.093 79.4891 28.8405C78.7815 28.5834 78.198 28.2234 77.7386 27.7512C77.2791 27.2837 76.9437 26.7507 76.7323 26.1523C76.521 25.5539 76.4199 24.9508 76.4199 24.3431C76.4199 23.5062 76.5578 22.7816 76.8334 22.1738C77.1091 21.5613 77.4996 21.0424 78.0142 20.6123C78.5242 20.1822 79.1353 19.8175 79.8428 19.523C80.5504 19.2331 81.3499 18.9854 82.2412 18.7796C83.3439 18.5272 84.2123 18.3028 84.8555 18.1111C85.4987 17.9241 85.9766 17.7324 86.2936 17.5407C86.606 17.3491 86.8082 17.1387 86.9001 16.9143C86.9919 16.6852 87.0379 16.4047 87.0379 16.0727C87.0379 15.1611 86.7071 14.3803 86.0363 13.7305C85.3701 13.0853 84.442 12.7628 83.2612 12.7628C82.8155 12.7628 82.3607 12.8189 81.8874 12.9357C81.4188 13.0479 80.9639 13.2069 80.532 13.4079C80.1001 13.6136 79.705 13.8334 79.3558 14.0765C79.002 14.3149 78.731 14.5767 78.5518 14.8572H78.2761L77.7661 12.5711L77.7615 12.5757ZM87.0746 22.9358C87.0746 21.8419 87.0838 21.0097 87.0976 20.4393C87.1114 19.869 87.116 19.364 87.116 18.9339C86.5647 19.2378 85.9811 19.4856 85.3655 19.6773C84.7498 19.869 84.1847 20.1074 83.6747 20.4019C83.1647 20.6965 82.7466 21.0938 82.4158 21.6034C82.0896 22.113 81.9242 22.847 81.9242 23.8148C81.9242 24.7825 82.1263 25.4744 82.5352 25.9653C82.9396 26.4609 83.4817 26.7087 84.1663 26.7087C85.0301 26.7087 85.733 26.3908 86.2706 25.7549C86.8082 25.1191 87.0746 24.1794 87.0746 22.9358Z"></path>
<path fill="#2F3032" d="M102.802 13.2583C103.537 12.1924 104.396 11.3696 105.375 10.7852C106.358 10.2008 107.479 9.90625 108.738 9.90625C110.704 9.90625 112.216 10.4579 113.282 11.5659C114.343 12.6693 114.872 14.4552 114.872 16.9189C114.872 18.214 114.844 19.3594 114.794 20.3458C114.738 21.3369 114.715 22.3281 114.715 23.3192C114.715 24.1327 114.734 25.0116 114.775 25.9653C114.812 26.919 114.858 27.84 114.913 28.7283C114.568 28.6769 114.137 28.6535 113.613 28.6535H110.309C109.781 28.6535 109.349 28.6769 109.009 28.7283C109.193 27.4053 109.312 25.8531 109.363 24.0625C109.413 22.272 109.441 20.2196 109.441 17.9101C109.441 16.3112 109.161 15.133 108.596 14.385C108.035 13.637 107.24 13.2583 106.22 13.2583C105.039 13.2583 104.176 13.7539 103.624 14.745C103.073 15.7361 102.797 17.106 102.797 18.8591V20.3832C102.797 21.9307 102.82 23.394 102.857 24.7685C102.894 26.1383 102.981 27.4614 103.114 28.7283C102.774 28.6769 102.347 28.6535 101.837 28.6535H98.5151C98.0143 28.6535 97.5824 28.6769 97.2148 28.7283C97.3481 27.4567 97.4308 26.1383 97.4721 24.7685C97.5135 23.394 97.5319 21.9354 97.5319 20.3832V18.8591C97.5319 17.3117 97.5135 15.8577 97.4721 14.4972C97.4354 13.1368 97.3481 11.7716 97.2148 10.4018C97.6881 10.4532 98.1521 10.4953 98.6116 10.5327C99.071 10.5701 99.5351 10.5888 100.008 10.5888C100.482 10.5888 100.946 10.5701 101.405 10.5327C101.865 10.4953 102.356 10.4532 102.88 10.4018L102.724 13.2583H102.802Z"></path>
<path fill="#2F3032" d="M132.153 12.8937C131.537 12.1971 130.627 11.8464 129.419 11.8464C127.848 11.8464 126.667 12.5383 125.877 13.9222C125.091 15.306 124.7 17.2322 124.7 19.6913C124.7 22.0008 125.197 23.7774 126.194 25.0069C127.186 26.2412 128.643 26.8583 130.559 26.8583C131.367 26.8583 132.157 26.6759 132.916 26.3066C133.674 25.9373 134.239 25.5259 134.606 25.0677L135.075 25.4464C134.891 25.8017 134.735 26.171 134.606 26.5497C134.473 26.9284 134.344 27.3118 134.211 27.6904C133.632 28.1206 132.906 28.4852 132.029 28.7751C131.151 29.0696 130.108 29.2145 128.904 29.2145C126.989 29.2145 125.38 28.9481 124.066 28.4151C122.757 27.8821 121.7 27.1575 120.901 26.2458C120.101 25.3295 119.532 24.2963 119.192 23.1415C118.852 21.9868 118.682 20.8274 118.682 19.6586C118.682 18.2607 118.925 16.9657 119.412 15.7735C119.899 14.5814 120.588 13.5529 121.493 12.688C122.399 11.8231 123.492 11.1452 124.774 10.6496C126.056 10.154 127.485 9.90625 129.061 9.90625C130.637 9.90625 131.817 10.0746 132.856 10.4018C133.89 10.7291 134.882 11.1639 135.824 11.6968C135.507 12.2064 135.213 12.8282 134.937 13.5622C134.661 14.3009 134.459 14.9975 134.331 15.6613H133.389C133.177 14.5159 132.764 13.5996 132.153 12.8983V12.8937Z"></path>
<path fill="#2F3032" d="M143.768 19.618C143.768 20.6325 143.874 21.5863 144.085 22.4745C144.296 23.3628 144.618 24.1342 145.05 24.7794C145.482 25.4292 146.033 25.9341 146.699 26.3035C147.365 26.6728 148.146 26.8551 149.038 26.8551C150.848 26.8551 152.456 26.2848 153.876 25.1394L154.344 25.4806L153.481 27.6125C152.824 28.094 152.038 28.4821 151.124 28.7719C150.205 29.0665 149.001 29.2114 147.508 29.2114C146.226 29.2114 145.004 29.0384 143.851 28.6971C142.697 28.3558 141.682 27.7902 140.804 27.0047C139.927 26.2146 139.233 25.2188 138.718 24.0127C138.208 22.8065 137.951 21.3665 137.951 19.6882C137.951 18.0098 138.176 16.6026 138.64 15.3824C139.095 14.1622 139.734 13.1477 140.547 12.3342C141.356 11.5207 142.321 10.9129 143.437 10.5062C144.549 10.0995 145.762 9.89844 147.076 9.89844C149.672 9.89844 151.652 10.6371 153.03 12.1098C154.404 13.5824 155.093 15.6675 155.093 18.3557V19.1552C155.093 19.3843 155.08 19.5339 155.057 19.6134H143.772L143.768 19.618ZM149.823 17.9069C149.768 15.9995 149.529 14.4801 149.098 13.3347C148.661 12.1939 147.935 11.6189 146.915 11.6189C146.336 11.6189 145.854 11.8106 145.459 12.1893C145.064 12.5679 144.751 13.0588 144.517 13.6572C144.282 14.2557 144.103 14.9289 143.984 15.6769C143.864 16.4249 143.795 17.1683 143.768 17.9023H149.823V17.9069Z"></path>
</g>
<defs>
<clipPath id="clip0_668_7623">
<rect fill="white" height="29.2196" width="155.088"></rect>
</clipPath>
</defs>
</svg>
