<svg width="138" height="33" viewBox="0 0 138 33" fill="none" xmlns="http://www.w3.org/2000/svg">
<g clip-path="url(#clip0_869_105)">
<path d="M64.8633 12.3629L61.379 0.746094L56.5172 0.748889L53.0441 12.3629L49.5542 0.748889H44.4604L50.6243 21.2628H55.4666L58.9537 9.64877L62.4436 21.2628H67.2858L73.4469 0.748889H68.3532L64.8633 12.3629Z" fill="black"/>
<path d="M113.015 0.75H107.916V21.2639H113.015V0.75Z" fill="black"/>
<path d="M110.464 26.6797C108.723 26.6797 107.306 28.0968 107.306 29.8383C107.306 31.5797 108.723 32.9968 110.464 32.9968C112.205 32.9968 113.624 31.5797 113.624 29.8383C113.624 28.0968 112.207 26.6797 110.464 26.6797Z" fill="black"/>
<path d="M33.052 0C28.3411 0 24.7758 2.59394 23.4206 6.96282H29.1291C30.0344 5.75809 31.3951 5.10122 33.052 5.10122C35.6087 5.10122 37.4249 6.64416 37.9893 9.26046H22.9288L22.8953 9.64061C22.8534 10.1018 22.8311 10.563 22.8311 11.0047C22.8311 17.5873 26.9384 22.0093 33.052 22.0093C39.1656 22.0093 43.273 17.5873 43.273 11.0047C43.273 4.42199 39.1628 0 33.052 0ZM33.052 16.9081C30.3752 16.9081 28.7127 15.2478 28.3215 13.4728H37.7853C37.3913 15.2478 35.7316 16.9081 33.0548 16.9081H33.052Z" fill="black"/>
<path d="M138 0.75H132.459L127.304 7.42212L122.149 0.75H116.608L124.532 11.0083L116.608 21.2667H122.149L127.304 14.5946L132.459 21.2667H138L130.073 11.0083L138 0.75Z" fill="black"/>
<path d="M9.64539 0.361328C7.95493 0.361328 6.42094 0.903595 5.09931 1.80365V0.749859H0V21.2637H5.09931V10.0103C5.09931 7.50024 7.13345 5.46255 9.64539 5.46255C12.1573 5.46255 14.1915 7.49745 14.1915 10.0103V21.2637H19.2908V10.0103C19.2908 4.68269 14.9738 0.361328 9.64539 0.361328Z" fill="black"/>
<path d="M95.5821 0.359878C93.5648 0.359878 91.7206 1.08942 90.29 2.29694C89.0047 0.969229 87.1271 0.194962 84.5788 0.359878C83.3634 0.440938 82.2066 0.944072 81.1616 1.72673V0.748409H76.0623V21.2623H81.1616V8.40164C81.1616 6.68539 82.5531 5.29339 84.2687 5.29339C85.9843 5.29339 87.373 6.68539 87.373 8.40164V21.2623H92.4723V8.40164C92.4723 6.68539 93.8638 5.29339 95.5794 5.29339C97.295 5.29339 98.6836 6.68539 98.6836 8.40164V21.2623H103.783V8.56935C103.783 4.03555 100.109 0.359878 95.5766 0.359878H95.5821Z" fill="black"/>
</g>
<defs>
<clipPath id="clip0_869_105">
<rect width="138" height="33" fill="white"/>
</clipPath>
</defs>
</svg>
