<?xml version="1.0" encoding="UTF-8"?>
<svg xmlns="http://www.w3.org/2000/svg" width="300" height="60" fill="none" viewBox="0 0 300 60"><path fill="#000" d="M88.386 40.162 79.531 15.73h-7.736l12.11 31.676h2.292l-1.44 4.216-7.201-.053v6.161c.8.108 2.028.271 2.986.271 6.402 0 9.443-2.27 11.31-7.46l12.802-34.811h-7.735l-8.535 24.433zM194.126 2h-7.468v46.164h7.468zM208.531 15.731h-7.469v32.433h7.469zM208.531 2h-7.469v7.296h7.469zM259.265 15.731h-7.469v32.433h7.469zM259.265 2h-7.469v7.296h7.469zM25.059 28.65l-12.056-2.812v-3.836c0-.27.217-.488.482-.488h11.092c.268 0 .482.22.482.488v1.943h6.94v-3.622c-1.326-1.915-3.698-3.643-6.783-4.646q-.045-.017-.085-.029-.028-.011-.06-.02c-1.804-.551-3.839-.873-6.04-.873C10.229 14.757 5 18.865 5 24.486c0 4.432 2.613 7.353 7.736 8.541l.267.061 12.056 2.804v5.024c0 .271-.217.488-.482.488H13.485a.485.485 0 0 1-.482-.488v-2.484H6.067v2.055c.096.312.217.617.35.92 1.172 2.63 2.84 4.836 6.584 5.959 1.705.51 3.648.798 5.816.798 9.122 0 14.243-4.163 14.243-9.893v-.81c0-4.812-3.095-7.674-8.003-8.812zM60.965 15.743c-7.716-2.85-14.556 0-14.556 0-8.56 3.124-8.003 9.81-8.003 9.81v2.81h-.007v8.759c.168 7.333 7.902 9.773 7.902 9.773 7.716 2.85 14.555 0 14.555 0 7.122-2.6 7.931-7.66 8.003-9.29h-7.735v3.17c0 .27-.217.488-.482.488H46.883a.485.485 0 0 1-.481-.488v-5.886c0-.27.216-.488.481-.488H68.87v-9.356h-.026c-.482-6.962-7.878-9.302-7.878-9.302m.159 12.762c0 .271-.217.488-.482.488H46.883a.485.485 0 0 1-.481-.488v-6.644c0-.271.216-.488.481-.488h13.76c.267 0 .48.22.48.488zM130.151 15.743c-7.716-2.85-14.556 0-14.556 0-8.559 3.124-8.002 9.81-8.002 9.81v2.81h-.008v8.759c.169 7.333 7.902 9.773 7.902 9.773 7.716 2.85 14.556 0 14.556 0 7.122-2.6 7.931-7.66 8.003-9.29h-7.736v3.17c0 .27-.216.488-.481.488H116.07a.485.485 0 0 1-.482-.488v-5.886c0-.27.217-.488.482-.488h21.986v-9.356h-.027c-.482-6.962-7.878-9.302-7.878-9.302m.162 12.762c0 .271-.217.488-.482.488h-13.759a.484.484 0 0 1-.481-.488v-6.644c0-.271.216-.488.481-.488h13.759c.267 0 .482.22.482.488zM215.467 23.52v24.644h7.468V22.76c0-.27.217-.488.482-.488h13.491c.267 0 .482.22.482.488v25.403h7.468V26.975c0-7.46-5.922-11.459-11.897-11.459h-.535c-3.468 0-6.936 1.225-9.135 3.092h-.361v-2.875h-7.468M181.324 25.59c-.121-6.067-5.009-10.95-11.026-10.95h-7.34c-6.093 0-11.03 5.005-11.03 11.176v11.167c0 6.173 4.939 11.176 11.03 11.176h7.34c6.017 0 10.905-4.88 11.026-10.95h-8.302v3.646c0 .271-.216.488-.481.488h-11.823a.485.485 0 0 1-.482-.488V21.941c0-.27.217-.488.482-.488h11.823c.267 0 .481.22.481.488v3.646h8.302zM294 25.59c-.12-6.067-5.009-10.95-11.025-10.95h-7.341c-6.093 0-11.03 5.005-11.03 11.176v11.167c0 6.173 4.94 11.176 11.03 11.176h7.341c6.016 0 10.905-4.88 11.025-10.95h-8.301v3.646c0 .271-.217.488-.482.488h-11.823a.484.484 0 0 1-.481-.488V21.941c0-.27.217-.488.481-.488h11.823c.267 0 .482.22.482.488v3.646H294z"></path></svg>
